<?xml version="1.0" encoding="UTF-8"?>
<svg width="632px" height="440px" viewBox="0 0 632 440" version="1.1" xmlns="http://www.w3.org/2000/svg" xmlns:xlink="http://www.w3.org/1999/xlink">
    <title>407FC1E0-9D7B-4ECA-B532-3AA39A1232F2</title>
    <g id="login-&amp;-register-/-website" stroke="none" stroke-width="1" fill="none" fill-rule="evenodd">
        <g id="login" transform="translate(-1125.000000, -204.000000)">
            <g id="undraw_secure_login_pdn4-(1)" transform="translate(1125.000000, 204.000000)">
                <ellipse id="Oval" fill="#E6E6E6" fill-rule="nonzero" cx="125.921816" cy="430.430128" rx="125.921816" ry="9.56987196"></ellipse>
                <path d="M617.023983,380.372927 L170.385853,380.372927 C162.114827,380.372927 155.409836,373.663596 155.409836,365.387217 L155.409836,365.387217 C317.316069,346.55843 476.179457,346.55843 632,365.387217 L632,365.387217 C632,373.663596 625.295009,380.372927 617.023983,380.372927 Z" id="Path" fill="#2F2E41" fill-rule="nonzero"></path>
                <path d="M632,366.268722 L155.409836,365.387209 L210.64497,272.387569 L210.909247,271.946812 L210.909247,66.9861769 C210.908828,61.9618655 212.903252,57.1432167 216.453679,53.590492 C220.004105,50.0377674 224.819638,48.0424718 229.840699,48.0424718 L554.926285,48.0424718 C559.947347,48.0424718 564.762879,50.0377674 568.313306,53.590492 C571.863732,57.1432167 573.858156,61.9618655 573.857737,66.9861769 L573.857737,273.357212 L632,366.268722 Z" id="Path" fill="#3F3D56" fill-rule="nonzero"></path>
                <path d="M229.40905,61.2651639 C226.004912,61.2689875 223.246265,64.0294196 223.242444,67.4357615 L223.242444,254.316548 C223.246418,257.722825 226.004977,260.483165 229.40905,260.487138 L558.000786,260.487138 C561.404798,260.483016 564.163269,257.722763 564.167392,254.316548 L564.167392,67.4357615 C564.163422,64.0294815 561.404863,61.2691366 558.000786,61.2651639 L229.40905,61.2651639 Z" id="Path" fill="#FFFFFF" fill-rule="nonzero"></path>
                <path d="M230.78595,285.169501 C229.754435,285.17126 228.817659,285.771776 228.384868,286.708714 L211.365203,323.732268 C210.98869,324.551011 211.054821,325.505264 211.540667,326.264167 C212.026513,327.02307 212.865169,327.482143 213.765855,327.482143 L571.68035,327.482143 C572.5963,327.482143 573.446923,327.007499 573.928368,326.227779 C574.409813,325.44806 574.453409,324.474473 574.043584,323.654792 L555.54378,286.631238 C555.098586,285.733339 554.18223,285.166547 553.180546,285.169501 L230.78595,285.169501 Z" id="Path" fill="#2F2E41" fill-rule="nonzero"></path>
                <ellipse id="Oval" fill="#FFFFFF" fill-rule="nonzero" cx="392.383504" cy="54.2130615" rx="3.96424192" ry="3.96680762"></ellipse>
                <path d="M357.203419,334.534245 C356.009117,334.53575 354.963761,335.337381 354.651789,336.490965 L350.382569,352.358203 C350.168614,353.152628 350.336399,354.001443 350.836486,354.654541 C351.336573,355.307638 352.111972,355.690561 352.934208,355.690561 L434.125088,355.690561 C434.979945,355.690561 435.781985,355.27673 436.277713,354.579835 C436.77344,353.882939 436.901592,352.989114 436.621663,352.180866 L431.132978,336.313627 C430.764134,335.248826 429.761758,334.534652 428.635534,334.534245 L357.203419,334.534245 Z" id="Path" fill="#2F2E41" fill-rule="nonzero"></path>
                <polygon id="Path" fill="#2F2E41" fill-rule="nonzero" points="573.857594 268.861565 573.857594 272.387265 210.644883 272.387265 210.918245 271.947051 210.918245 268.861565"></polygon>
                <ellipse id="Oval" fill="#ED762D" fill-rule="nonzero" cx="563.726921" cy="61.7059203" rx="61.6660093" ry="61.7059203"></ellipse>
                <path d="M589.27425,88.5921007 L538.179568,88.5921007 C536.234238,88.5901752 534.657717,87.0126309 534.655798,85.0660415 L534.655798,54.2130615 C534.657871,52.2665371 536.234303,50.6890849 538.179568,50.6870102 L589.27425,50.6870102 C591.219515,50.6890849 592.795947,52.2665371 592.79802,54.2130615 L592.79802,85.0660176 C592.796114,87.0126163 591.219589,88.5901752 589.27425,88.5921007 Z M538.179552,54.2130615 L538.179552,85.0660415 L589.276832,85.0660415 L589.27425,54.2130615 L538.179552,54.2130615 Z" id="Shape" fill="#FFFFFF" fill-rule="nonzero"></path>
                <path d="M579.583889,54.2130615 L547.869921,54.2130615 L547.869921,40.1088486 C547.869921,29.893114 554.538932,22.4785845 563.726897,22.4785845 C572.914862,22.4785845 579.583889,29.893114 579.583889,40.1088486 L579.583889,54.2130615 Z M551.393716,50.6870102 L576.060118,50.6870102 L576.060118,40.1088486 C576.060118,31.8045922 570.988673,26.0046437 563.726953,26.0046437 C556.465233,26.0046437 551.393716,31.8046321 551.393716,40.1088486 L551.393716,50.6870102 Z" id="Shape" fill="#FFFFFF" fill-rule="nonzero"></path>
                <ellipse id="Oval" fill="#FFFFFF" fill-rule="nonzero" cx="563.726921" cy="68.7580227" rx="3.52377059" ry="3.52605122"></ellipse>
                <path d="M520.678691,197.099073 L266.731145,197.099073 C264.135165,197.096023 262.031467,194.990964 262.028419,192.393304 L262.028419,129.358958 C262.031472,126.761301 264.135168,124.656246 266.731145,124.653197 L520.678691,124.653197 C523.274668,124.656246 525.378364,126.761301 525.381417,129.358958 L525.381417,192.393312 C525.378364,194.990969 523.274668,197.096023 520.678691,197.099073 Z M266.731145,126.535503 C265.173507,126.537243 263.909516,127.800352 263.909516,129.358998 L263.909516,192.393312 C263.909516,193.951959 265.173506,195.21507 266.731145,195.216775 L520.678691,195.216775 C522.23633,195.21507 523.50032,193.951959 523.50032,192.393312 L523.50032,129.358958 C523.50032,127.800312 522.236329,126.537204 520.678691,126.535503 L266.731145,126.535503 Z" id="Shape" fill="#E6E6E6" fill-rule="nonzero"></path>
                <ellipse id="Oval" fill="#8061D8" fill-rule="nonzero" cx="306.189423" cy="158.457509" rx="19.1564141" ry="19.1688124"></ellipse>
                <path d="M350.431647,145.678305 C349.289791,145.676504 348.2339,146.285034 347.66245,147.274251 C347.091001,148.263468 347.091001,149.482754 347.66245,150.471971 C348.2339,151.461188 349.289791,152.069718 350.431647,152.067917 L500.946264,152.067917 C502.709564,152.067917 504.139,150.637551 504.139,148.873111 C504.139,147.108671 502.709564,145.678305 500.946264,145.678305 L350.431647,145.678305 Z" id="Path" fill="#8061D8" fill-rule="nonzero"></path>
                <path d="M350.431647,164.847121 C348.66835,164.847121 347.238915,166.277481 347.238915,168.041919 C347.238915,169.806358 348.66835,171.236717 350.431647,171.236717 L415.198497,171.236717 C416.961794,171.236717 418.391229,169.806358 418.391229,168.041919 C418.391229,166.277481 416.961794,164.847121 415.198497,164.847121 L350.431647,164.847121 Z" id="Path" fill="#8061D8" fill-rule="nonzero"></path>
                <g id="Group-2" transform="translate(40.645649, 6.379915)">
                    <path d="M90.0563231,411.896727 C91.2063215,412.18604 93.8697377,412.677374 96.9463567,412.90683 C99.841266,413.123815 100.79462,412.914312 101.912259,413.58522 C103.169292,414.338432 104.540826,416.136665 104.695155,420.880407 C102.532063,421.743359 99.4156173,422.66617 95.6594537,422.643723 C91.0694169,422.613794 90.7906294,421.202144 82.8700778,419.992514 C79.0790659,419.413888 76.948333,419.401417 73.142386,418.1868 C71.1336226,417.548315 69.538062,416.852466 68.4975873,416.361132 C68.0893628,415.074186 67.7309217,413.51788 67.5940172,411.734612 C67.2081952,406.776378 68.7290805,402.815777 69.7645769,400.678349 C71.0465015,400.750678 73.1125159,400.99011 75.4423827,401.875508 C82.7904243,404.666385 83.4475662,410.240657 90.0563231,411.896727" id="Fill-822" fill="#303030"></path>
                    <path d="M92.7376613,412.289046 C91.6050872,411.969803 90.7288979,411.493434 90.1389637,411.116828 C87.0498988,407.562762 83.9608339,404.008696 80.871769,400.452136 C79.9184153,395.434045 79.0023993,390.318684 78.1013183,385.160924 C73.503814,386.133616 68.9063097,387.11379 64.3063162,388.074011 C66.292677,392.269056 68.4632367,396.681085 70.8727571,401.312594 C70.6935366,401.783976 70.5168052,402.255357 70.3375847,402.726738 C71.8709159,403.622113 74.1982936,405.048728 76.8990473,406.996605 C81.23021,410.119195 85.2278234,413.810435 89.7606093,415.162227 C92.3916661,415.945369 93.8378762,415.546316 94.2958842,414.952725 C94.4078971,414.808068 94.6120093,414.456402 95.0525931,414.007468 C95.6948,413.351524 96.0831112,413.256749 96.0582194,413.059717 C96.0059468,412.673134 94.4775939,412.78038 92.7376613,412.289046" id="Fill-824" fill="#F7B9A5"></path>
                    <path d="M40.8665116,395.619355 C41.3767923,396.584564 41.9941074,398.041108 42.2654274,399.901693 C42.4371804,401.083887 42.4222453,402.126413 42.3500593,402.959436 C43.0993006,407.159469 43.848542,411.359502 44.5977834,415.559534 C44.7546013,416.544697 44.8666142,417.781761 44.7994065,419.203387 C44.7272204,420.732259 44.4683463,422.036663 44.192048,423.04926 C42.3401026,423.637864 39.7065565,424.246419 36.5154355,424.263878 C32.2689047,424.288819 28.8935848,423.261257 26.8176137,422.443199 C26.5711854,421.034043 26.307333,418.983908 26.3372031,416.512274 C26.3745407,413.429589 26.9346048,411.147505 27.780924,407.19688 C28.4430443,404.109208 29.3963979,400.093737 30.7654436,395.40237 C34.1308068,395.474698 37.4986592,395.547027 40.8665116,395.619355" id="Fill-826" fill="#303030"></path>
                    <path d="M40.9892279,400.060067 C41.70611,393.647784 42.5051348,387.125761 43.3763457,380.521434 C38.3855519,380.361813 33.3947581,380.212168 28.4064534,380.067512 C29.0113227,385.980978 29.730694,392.335897 30.604394,399.119798 C30.3355632,400.242135 29.9895681,401.953074 29.8078584,404.060573 C29.5489843,407.100858 29.0113227,413.358508 31.6647822,414.750205 C32.33437,415.099376 32.4538503,414.747711 35.6524389,414.730252 C39.3911782,414.7103 39.6002688,415.191657 40.3544885,414.750205 C42.7241821,413.356014 42.0869536,407.734355 41.6737507,404.085514 C41.4845735,402.429444 41.2157427,401.050217 40.9892279,400.060067" id="Fill-828" fill="#FCC6AE"></path>
                    <path d="M84.0604008,114.332385 C87.5800928,122.759885 91.8291128,131.748554 96.9767246,141.081406 C99.6625433,145.952347 102.390678,150.548938 105.118813,154.876169 C105.631583,155.177953 109.845754,157.562295 114.629946,155.656817 C120.160891,153.457037 121.251149,147.593452 121.305911,147.271716 C104.942081,107.169384 97.8578922,92.8558514 94.8783509,89.1122355 C93.8129845,87.0546184 91.873918,83.9993689 88.525979,81.2957849 C86.8457865,79.9439929 85.2029317,78.9937479 83.8040159,78.3228401 C82.9477401,84.0392742 82.3627842,90.8580923 82.5644073,98.5323802 C82.7162469,104.395965 83.2987136,109.698382 84.0604008,114.332385" id="Fill-830" fill="#808080"></path>
                    <path d="M106.910271,138.376076 C114.512209,136.001711 122.298345,133.422831 130.246277,130.619483 C142.244096,126.384534 153.647002,121.977492 164.445038,117.488146 C166.277071,120.331398 168.9604,125.317067 170.063104,132.071039 C171.489401,140.832746 169.488105,147.878526 168.275877,151.2605 C162.398937,152.467635 156.188448,153.537596 149.656856,154.405536 C134.169215,156.463153 119.898781,156.976934 107.221418,156.640233 C106.940141,156.478118 102.06136,153.515149 101.919477,147.676505 C101.772616,141.733109 106.67131,138.528215 106.910271,138.376076" id="Fill-832" fill="#808080"></path>
                    <path d="M33.5901679,118.67034 C30.0851523,128.210201 26.6799623,138.149115 23.4241228,148.479599 C21.9828911,153.061226 20.608867,157.595466 19.2995615,162.074836 C18.8440427,162.45643 15.0629874,165.486739 10.0373451,164.376873 C4.22512391,163.094915 2.20889299,157.480738 2.10434768,157.173966 C11.8320396,114.959147 16.5291109,99.6928762 18.8714236,95.5177843 C19.593284,93.3155105 21.0170916,89.9859121 23.8895983,86.7810177 C25.3308301,85.1748294 26.7994427,83.9726823 28.0738998,83.0872834 C29.8337458,88.5917207 31.5039815,95.2259768 32.5369887,102.835419 C33.3235677,108.644134 33.599866,113.973985 33.5901679,118.67034" id="Fill-834" fill="#808080"></path>
                    <path d="M89.6276874,163.030069 C91.36762,179.373783 92.9084187,196.006811 94.2251917,212.92167 C99.32302,278.46363 100.473018,340.800697 98.8202069,399.436546 C94.6508404,401.292143 88.3109143,403.541804 80.4351679,404.043114 C67.8673285,404.84122 65.1118129,400.306981 50.5601018,399.436546 C36.8198615,398.615994 34.3705143,402.362104 21.4492122,400.9729 C12.0376453,399.960303 4.63484194,397.034746 0,394.832472 C1.50843943,377.189342 3.28819882,359.27685 5.36168074,341.102481 C12.7395924,276.47086 23.0472618,215.495562 35.239236,158.425995 C53.36789,159.959855 71.4990333,161.496209 89.6276874,163.030069" id="Fill-836" fill="#808080"></path>
                    <path d="M71.424607,75.8023216 C75.9374794,76.3235845 80.1018675,77.1790544 83.8829227,78.2140981 C86.1854087,84.1300588 89.0678721,91.6646782 92.3087767,100.473773 C96.3039009,111.333003 97.69286,115.570447 97.2871246,121.326786 C96.8589867,127.462226 94.6037951,132.285779 92.8638624,135.286159 C93.1799875,141.813169 93.329338,148.634482 93.2646195,155.727649 C93.1376716,169.410178 92.2291231,182.147451 90.8650557,193.804787 C86.762897,195.189002 82.0782716,196.363714 76.8634521,197.012175 C55.3893482,199.678348 37.9153469,191.784581 29.260489,186.990957 C30.6419806,177.74041 31.6575635,167.691756 32.0608097,156.93229 C33.1361329,128.225415 29.5168739,103.244697 24.8446944,83.3843285 C35.0104809,78.8875 51.5784229,73.512755 71.424607,75.8023216" id="Fill-838" fill="#808080"></path>
                    <path d="M25.9411755,86.2393033 C28.5473407,93.108003 33.2792604,103.216514 41.9465642,113.260179 C45.9143075,117.859265 67.1494507,142.473353 82.0670703,136.325443 C91.705152,132.354865 94.2017935,117.400354 94.7842602,113.918617 C96.4893443,103.712836 93.6890236,95.4574275 92.1532033,91.7312701 C70.0816976,89.9006145 48.0126812,88.0699589 25.9411755,86.2393033" id="Fill-840" fill="#303030"></path>
                    <path d="M87.3754827,72.2537428 C86.5665012,70.4330635 85.1402045,67.9589349 82.4444291,65.2329041 C83.1812246,63.8985707 84.1669375,61.9407169 85.0655293,59.4765647 C85.7973464,57.4713234 86.3623889,55.5159637 86.7656351,53.4857816 C88.0425814,47.0535461 87.3605477,39.9429205 86.99215,36.5933694 C85.7450738,25.2378176 85.090421,19.5637828 84.2665045,17.7056923 C80.654713,9.57997562 71.9923876,1.92314625 61.0275762,0.309475699 C47.1404746,-1.73816499 35.0505566,6.71427629 29.6565166,15.6605457 C27.8120387,18.7182892 26.9706979,25.9860419 25.1784926,40.5090769 C24.0857452,49.3780298 23.9264381,54.5906595 27.0603081,59.2171802 C29.0317339,62.1252789 31.6403882,63.8287364 33.5495847,64.8089103 C32.6933088,66.64206 31.837033,68.4752097 30.9807571,70.3083594 C30.607381,72.5480444 30.2364941,74.7902234 29.863118,77.0299084 C27.5008919,79.3967914 25.141155,81.7611804 22.7814181,84.1280635 C46.1547617,119.184869 73.2170612,134.905063 85.4140137,128.106198 C99.6346646,120.180008 92.7520985,82.1402808 92.3065364,79.7958444 C91.7738532,79.2820637 91.0196334,78.4989222 90.2305653,77.4539022 C88.5877105,75.2790633 87.8882526,73.4109965 87.3754827,72.2537428" id="Fill-842" fill="#5B5B5B"></path>
                    <path d="M59.0626223,8.77214271 C57.5890313,9.08390287 52.8695574,10.161346 49.3324412,14.1768167 C42.8680564,21.5144037 43.3011727,31.8224414 43.8487909,39.5416228 C43.9384012,40.836051 44.2495479,44.4624451 45.4543081,48.9941907 C46.7710812,53.9374597 47.4307123,56.4090942 49.4170731,58.920634 C52.1302727,62.3499957 55.4234499,63.4823085 61.920194,65.7145112 C68.6036261,68.01156 71.0828434,67.2408889 72.4718025,66.3455138 C73.0866285,65.9489549 73.4724504,65.5374315 73.880675,65.0835087 C76.8651945,61.7588984 79.5435457,58.7759773 81.1814222,54.867752 C82.7023075,51.2363697 82.5678921,47.101183 82.3015505,38.8308097 C82.0551223,31.256285 81.8883476,31.5530806 81.7489539,28.0788255 C81.5025257,21.9034804 81.7066379,21.0130934 79.9542595,18.1274414 C77.5472282,14.1668404 69.245833,6.61975061 59.0626223,8.77214271" id="Fill-844" fill="#E3B49F"></path>
                    <path d="M82.2226437,103.672682 C83.3651746,105.268894 80.2935339,110.374278 77.3712436,112.115147 C65.1095726,119.420311 31.2269364,81.9068348 31.6625419,81.4130067 C32.0533422,80.9740484 61.3334957,108.209415 76.3506823,103.929572 C77.4508972,103.615318 81.2643117,102.335854 82.2226437,103.672682" id="Fill-846" fill="#303030"></path>
                    <path d="M85.0314276,85.507041 C84.5410603,84.8959911 82.4825135,86.5370966 79.4133619,87.2977914 C70.4697599,89.5200177 60.9511586,82.3046407 61.2847079,81.4142537 C61.4489934,80.9752954 63.9655483,82.1325491 68.6900005,81.66865 C70.3453012,81.5065347 74.0143436,80.9752954 74.0516812,80.1347901 C74.091508,79.2344267 69.9495225,78.8503382 65.1130575,77.3189724 C54.4942413,73.9569509 49.3366728,67.8489459 48.0049647,69.1333978 C46.8450096,70.2507462 50.1829919,75.4533996 50.5588572,76.0395087 C54.6162108,82.3644987 60.0973719,85.1628578 59.7513767,85.7639314 C59.3207496,86.5121558 51.1014971,81.6013098 50.3049615,82.6937174 C49.5358067,83.7437256 55.0518162,91.2035226 63.5822155,93.949506 C65.2151136,94.4757571 72.3441079,96.7728059 78.6466964,93.1838231 C82.8384653,90.7969873 85.7084829,86.3500405 85.0314276,85.507041" id="Fill-848" fill="#303030"></path>
                    <path d="M29.1101429,175.310925 C32.8040771,178.555725 37.7998493,182.351716 44.1746238,185.801031 C51.0123847,189.497259 57.3373758,191.659627 62.305767,192.964032 C63.4482979,190.739311 64.565937,188.349982 65.623836,185.801031 C68.8224245,178.099308 70.6768591,170.854002 71.7521823,164.566423 C57.5389989,168.147924 43.3258155,171.729424 29.1101429,175.310925" id="Fill-850" fill="#303030"></path>
                    <path d="M12.300751,145.807191 C19.8952208,147.600436 27.9302744,149.273964 36.3884876,150.747966 C47.2885804,152.653444 57.6609684,154.015212 67.413552,154.970446 C68.2872521,158.584369 69.158463,164.013984 68.5710179,170.563441 C67.9113868,177.945922 65.6736194,183.674826 63.9660461,187.208939 C57.1033934,185.869618 49.4815427,183.924235 41.3668356,181.068512 C25.5705375,175.509204 12.9280229,168.281357 3.47662929,161.791758 C3.31234381,161.509927 0.559317392,156.504305 3.34470307,151.371486 C6.17738306,146.14888 12.0169852,145.817167 12.300751,145.807191" id="Fill-852" fill="#808080"></path>
                    <path d="M62.8160477,185.033352 C62.061828,182.369674 61.3922402,178.990194 61.2852057,175.054533 C61.0636692,167.133331 63.2242722,160.848247 64.8596595,157.144536 C65.4894206,160.254655 65.9872554,164.160387 65.8802209,168.659709 C65.7184246,175.535891 64.2099851,181.155056 62.8160477,185.033352" id="Fill-854" fill="#303030"></path>
                    <path d="M64.273708,158.060113 C63.5742501,159.930674 62.899684,162.013232 62.3122389,164.300305 C61.9189494,165.841647 61.6053135,167.318143 61.3563961,168.712334 C63.4373455,168.871955 65.5207842,169.029083 67.6017336,169.188704 C72.6995619,170.754987 76.9510711,171.400954 79.9380798,171.692761 C81.4490084,171.939675 83.2387245,171.982075 87.3856884,171.121617 C89.3496466,170.715082 90.3577621,170.503085 91.5500764,170.04168 C92.8220443,169.550346 93.8301598,169.001648 94.5370852,168.572666 C94.9826473,168.527772 96.0604597,168.350693 97.0262592,167.502705 C97.5464965,167.046288 97.8576433,166.549966 98.0368638,166.1983 C98.2982271,166.155901 98.6915166,166.068608 99.1321004,165.869082 C99.6025542,165.657085 99.9460602,165.499958 100.023225,165.253044 C100.15764,164.814085 99.4606713,164.110754 98.3430322,163.504693 C98.0493097,163.068228 97.5763666,162.469649 96.8594845,161.93841 C94.8158727,160.426996 92.3540796,160.626523 91.3235616,160.676405 C88.896617,160.801109 85.3395874,160.574147 80.0102659,159.224849 C80.5155682,159.135062 81.356909,159.017841 82.3973837,159.052758 C84.6575537,159.125086 85.5959723,159.830911 86.9451046,159.269743 C87.7466186,158.93803 88.5232409,158.229711 88.411228,157.763318 C88.3141503,157.361771 87.5898006,157.271984 85.3470549,156.86046 C82.773249,156.384091 83.3582049,156.433972 82.4123188,156.29181 C77.779966,155.605937 75.4650342,155.261754 73.0804055,156.007485 C71.0591963,156.640981 71.0492396,157.339324 68.8114721,157.865575 C66.9694834,158.299545 65.3564987,158.207264 64.273708,158.060113" id="Fill-856" fill="#E3B49F"></path>
                    <path d="M163.678871,120.047323 C163.091426,122.301972 162.611015,124.875864 162.401924,127.72161 C161.694999,137.286412 164.37335,145.067945 166.486659,149.726889 C167.606787,147.133045 169.090335,142.74845 169.040551,137.189143 C168.965876,128.691808 165.359063,122.556368 163.678871,120.047323" id="Fill-858" fill="#303030"></path>
                    <path d="M174.87866,110.052791 C171.56308,111.634038 171.157345,111.579169 170.141762,112.444615 C169.03408,113.384883 167.470878,115.232998 166.836139,118.961649 C165.763305,119.575193 164.690471,120.188737 163.617637,120.802281 C163.104867,122.114168 162.549781,123.929859 162.308332,126.144603 C162.049457,128.496522 162.231167,130.496775 162.472617,131.933365 C165.529323,130.893334 168.588517,129.850808 171.645223,128.808282 C171.973794,129.095101 172.479096,129.484178 173.168598,129.795938 C173.536995,129.963041 174.485371,130.352118 176.329849,130.349624 C177.654089,130.34713 180.252787,130.307225 182.77432,128.608755 C183.540986,128.09248 184.093582,127.561241 184.43211,127.202093 C184.618798,127.241999 185.798666,127.471454 186.859054,126.690807 C187.730265,126.047334 187.95678,125.136994 188.009053,124.897562 C189.178965,125.558494 190.510673,125.249228 191.048334,124.418699 C191.561104,123.625581 191.165325,122.637925 191.12052,122.530679 C192.671276,121.812384 192.833072,121.031736 192.860453,120.804775 C192.922682,120.2885 192.62896,119.949305 189.923228,117.480165 C188.399853,116.088467 187.862192,115.61958 187.147799,115.726826 C186.513059,115.819107 186.065008,116.322911 185.803645,116.692035 C182.196832,116.273029 178.592508,115.85153 174.985695,115.432524 C175.495975,114.45235 176.006256,113.469682 176.516537,112.489508 C178.338612,111.98321 179.647917,111.24995 180.474323,110.698758 C181.631789,109.928087 182.04997,109.381883 182.264039,108.780809 C182.32129,108.611212 182.734493,107.443982 182.264039,106.990059 C181.577027,106.326633 179.645428,107.780683 174.87866,110.052791" id="Fill-860" fill="#E3B49F"></path>
                    <path d="M186.092887,123.363453 C184.895594,122.540406 183.805336,122.086483 183.028714,121.827099 C181.662157,121.373176 180.579366,121.011534 179.882398,121.570209 C179.160537,122.153824 179.280018,123.388394 179.327312,123.747541 C179.130667,123.782459 177.930885,124.011914 177.667033,124.770115 C177.37331,125.618102 178.271902,127.062175 180.220925,127.713131 C182.177416,126.264069 184.136396,124.812514 186.092887,123.363453" id="Fill-862" fill="#E3B49F"></path>
                    <path d="M115.552932,135.900141 C114.646873,136.46137 113.412243,137.369215 112.297093,138.778371 C110.116576,141.534331 109.979672,144.215468 109.424586,144.150622 C108.874478,144.085776 108.14515,141.347275 109.232919,139.16246 C110.250992,137.114819 112.69536,135.890225 115.552932,135.900141" id="Fill-864" fill="#303030"></path>
                    <path d="M22.9536689,147.564022 C21.9181725,147.314614 20.4047548,147.075182 18.6225062,147.274709 C15.1326843,147.663785 13.1363667,149.454535 12.7903716,149.013083 C12.4493547,148.576619 13.8781406,146.129925 16.1905832,145.364242 C18.3586537,144.648441 20.9473947,145.523863 22.9536689,147.564022" id="Fill-866" fill="#303030"></path>
                </g>
            </g>
        </g>
    </g>
</svg>